<?xml version="1.0" encoding="UTF-8" standalone="no"?>
<svg
   xmlns:dc="http://purl.org/dc/elements/1.1/"
   xmlns:cc="http://creativecommons.org/ns#"
   xmlns:rdf="http://www.w3.org/1999/02/22-rdf-syntax-ns#"
   xmlns:svg="http://www.w3.org/2000/svg"
   xmlns="http://www.w3.org/2000/svg"
   width="159.00801mm"
   height="24.804724mm"
   viewBox="0 0 159.00801 24.804724"
   version="1.1"
   id="svg8">
  <defs
     id="defs2" />
  <metadata
     id="metadata5">
    <rdf:RDF>
      <cc:Work
         rdf:about="">
        <dc:format>image/svg+xml</dc:format>
        <dc:type
           rdf:resource="http://purl.org/dc/dcmitype/StillImage" />
        <dc:title></dc:title>
      </cc:Work>
    </rdf:RDF>
  </metadata>
  <g
     id="layer1"
     transform="translate(-4.8655702,-169.43263)">
    <g
       aria-label="ClickVote"
       id="text5045-7"
       style="font-size:56.2451px;line-height:1.25;font-family:sans-serif;word-spacing:0px;fill:#dfdffd;fill-opacity:1;stroke-width:0.458962"
       transform="matrix(0.57648536,0,0,0.57648536,1548.4986,-1158.0684)">
      <path
         d="m -2629.7999,2333.4587 c -3.431,3.5434 -6.2995,4.8933 -10.2929,4.8933 -7.7055,0 -13.9487,-6.4119 -13.9487,-14.1738 0,-3.3747 1.2936,-6.9744 3.4309,-9.4491 2.531,-2.981 6.1307,-4.5559 10.3491,-4.5559 4.8371,0 8.0993,1.5749 10.9116,5.2308 h 8.6055 c -1.6312,-3.5997 -3.0935,-5.5683 -5.9058,-7.8743 -3.8247,-3.0935 -8.718,-4.7808 -13.78,-4.7808 -11.7553,0 -21.3732,9.6179 -21.3732,21.3731 0,12.0364 9.7304,21.6544 21.8794,21.6544 8.5492,0 15.9173,-4.7246 19.1796,-12.3177 z"
         style="font-style:normal;font-variant:normal;font-weight:600;font-stretch:normal;font-size:56.2451px;font-family:'URW Gothic';-inkscape-font-specification:'URW Gothic Semi-Bold';fill:#dfdffd;fill-opacity:1;stroke-width:0.458962"
         id="path5211" />
      <path
         d="m -2616.5824,2345.0452 h 7.4806 V 2303.48 h -7.4806 z"
         style="font-style:normal;font-variant:normal;font-weight:600;font-stretch:normal;font-size:56.2451px;font-family:'URW Gothic';-inkscape-font-specification:'URW Gothic Semi-Bold';fill:#dfdffd;fill-opacity:1;stroke-width:0.458962"
         id="path5213" />
      <path
         d="m -2603.0836,2345.0452 h 7.4806 v -31.1598 h -7.4806 z m 0,-34.5345 h 7.4806 v -7.0307 h -7.4806 z"
         style="font-style:normal;font-variant:normal;font-weight:600;font-stretch:normal;font-size:56.2451px;font-family:'URW Gothic';-inkscape-font-specification:'URW Gothic Semi-Bold';fill:#dfdffd;fill-opacity:1;stroke-width:0.458962"
         id="path5215" />
      <path
         d="m -2567.2555,2334.8086 c -1.856,2.8685 -3.9934,4.1059 -7.0868,4.1059 -5.1746,0 -9.0555,-4.0497 -9.0555,-9.5055 0,-5.512 3.6559,-9.3929 8.8867,-9.3929 3.3747,0 5.737,1.4061 7.2556,4.2746 h 8.4368 c -1.0686,-3.1497 -2.0811,-4.7808 -4.2184,-6.7494 -3.0372,-2.8122 -7.1431,-4.3871 -11.474,-4.3871 -9.2242,0 -16.4235,7.1431 -16.4235,16.3111 0,9.0554 7.4243,16.3111 16.6485,16.3111 7.3119,0 12.8801,-3.9934 15.4674,-10.9678 z"
         style="font-style:normal;font-variant:normal;font-weight:600;font-stretch:normal;font-size:56.2451px;font-family:'URW Gothic';-inkscape-font-specification:'URW Gothic Semi-Bold';fill:#dfdffd;fill-opacity:1;stroke-width:0.458962"
         id="path5217" />
      <path
         d="m -2554.1504,2345.0452 h 7.4806 v -14.5675 l 10.6303,14.5675 h 10.0679 l -12.9364,-15.9174 11.1366,-15.2424 h -8.943 l -9.9554,14.68 V 2303.48 h -7.4806 z"
         style="font-style:normal;font-variant:normal;font-weight:600;font-stretch:normal;font-size:56.2451px;font-family:'URW Gothic';-inkscape-font-specification:'URW Gothic Semi-Bold';fill:#dfdffd;fill-opacity:1;stroke-width:0.458962"
         id="path5219" />
      <path
         d="m -2507.9169,2345.0452 h 6.2994 l 16.0861,-41.5652 h -8.0993 l -11.1927,31.6098 -11.1928,-31.6098 h -8.0993 z"
         style="font-style:normal;font-variant:normal;font-weight:600;font-stretch:normal;font-size:56.2451px;font-family:'URW Gothic';-inkscape-font-specification:'URW Gothic Semi-Bold';fill:#dfdffd;fill-opacity:1;stroke-width:0.458962"
         id="path5221" />
      <path
         d="m -2470.1766,2313.1542 c -9.0555,0 -16.4798,7.3681 -16.4798,16.3111 0,8.9992 7.4243,16.3111 16.536,16.3111 9.0555,0 16.5923,-7.3119 16.5923,-16.0861 0,-9.2805 -7.2556,-16.5361 -16.6485,-16.5361 z m 0.056,6.8619 c 5.0058,0 9.0555,4.2184 9.0555,9.4492 0,5.2308 -4.0497,9.4492 -8.9992,9.4492 -5.0621,0 -9.0555,-4.2184 -9.0555,-9.5617 0,-5.1183 4.0496,-9.3367 8.9992,-9.3367 z"
         style="font-style:normal;font-variant:normal;font-weight:600;font-stretch:normal;font-size:56.2451px;font-family:'URW Gothic';-inkscape-font-specification:'URW Gothic Semi-Bold';fill:#dfdffd;fill-opacity:1;stroke-width:0.458962"
         id="path5223" />
      <path
         d="m -2448.1286,2345.0452 h 7.4806 v -24.3542 h 4.4996 v -6.8056 h -4.4996 V 2303.48 h -7.4806 v 10.4054 h -3.6559 v 6.8056 h 3.6559 z"
         style="font-style:normal;font-variant:normal;font-weight:600;font-stretch:normal;font-size:56.2451px;font-family:'URW Gothic';-inkscape-font-specification:'URW Gothic Semi-Bold';fill:#dfdffd;fill-opacity:1;stroke-width:0.458962"
         id="path5225" />
      <path
         d="m -2402.1202,2332.7837 c 0.2249,-1.1249 0.2812,-1.7998 0.2812,-2.9247 0,-9.6179 -6.8057,-16.7048 -16.0861,-16.7048 -9.168,0 -16.4236,7.2556 -16.4236,16.4236 0,9.1117 7.3681,16.1986 16.8735,16.1986 5.1183,0 9.1117,-1.8561 12.374,-5.6246 1.1811,-1.4623 1.9685,-2.756 2.4747,-4.3308 h -8.1555 c -1.9123,2.2498 -3.7684,3.0935 -6.8619,3.0935 -4.4434,0 -7.7056,-2.3623 -8.6055,-6.1308 z m -24.3542,-6.5806 c 1.1812,-4.0497 4.2184,-6.187 8.6618,-6.187 4.6121,0 7.6493,2.1936 8.6055,6.187 z"
         style="font-style:normal;font-variant:normal;font-weight:600;font-stretch:normal;font-size:56.2451px;font-family:'URW Gothic';-inkscape-font-specification:'URW Gothic Semi-Bold';fill:#dfdffd;fill-opacity:1;stroke-width:0.458962"
         id="path5227" />
    </g>
    <path
       id="path5067-7"
       style="fill:#ff0000;fill-opacity:1;fill-rule:evenodd;stroke-width:0.264584"
       d="M 4.8991232,192.65387 10.252144,181.5019 4.8655702,171.01612 31.692329,181.85396 Z" />
  </g>
</svg>
