<?xml version="1.0" encoding="UTF-8" standalone="no"?>
<svg
   version="1.1"
   id="warning-svg"
   x="0px"
   y="0px"
   viewBox="0 0 277.8786 200.00035"
   enable-background="new 0 0 277.879 200"
   xml:space="preserve"
   sodipodi:docname="0b1b8ba5ae7436c9ffa597bbf7eb38e9.svg"
   xmlns:inkscape="http://www.inkscape.org/namespaces/inkscape"
   xmlns:sodipodi="http://sodipodi.sourceforge.net/DTD/sodipodi-0.dtd"
   xmlns="http://www.w3.org/2000/svg"
   xmlns:svg="http://www.w3.org/2000/svg"><defs
   id="defs273" /><sodipodi:namedview
   id="namedview271"
   pagecolor="#ffffff"
   bordercolor="#666666"
   borderopacity="1.0"
   inkscape:pageshadow="2"
   inkscape:pageopacity="0.0"
   inkscape:pagecheckerboard="0" />
<rect
   x="-1361.0616"
   y="-899.17566"
   display="none"
   fill="#ffffff"
   id="rect2" />
<g
   id="g268"
   transform="translate(-6.0182229e-4,3.5823012e-4)">
	<path
   fill="#ebf3fa"
   d="m 265.889,199.558 c -17.528,0 -254.505,-0.511 -254.505,-0.54 -0.098,-0.229 -30.083,-36.98 7.675,-75.405 18.708,-19.038 -17.181,-43.704 0,-64.882 29.429,-36.277 58.548,-15.847 82.807,-26.049 4.286,-1.801 8.587,-4.7 12.893,-9.148 2.423,-2.501 5.08,-4.689 7.923,-6.578 0.436,-0.291 0.876,-0.575 1.321,-0.851 1.703,-1.056 3.468,-2.01 5.286,-2.869 1.221,-0.576 2.465,-1.109 3.733,-1.598 h 0.001 c 2.012,-0.778 4.078,-1.448 6.188,-2.015 2.996,-0.806 6.082,-1.405 9.229,-1.811 1.372,-0.178 2.756,-0.318 4.149,-0.423 27.105,-2.037 57.609,9.424 73.352,26.176 3.168,3.374 17.58,20.828 6.22,44.819 -7.173,15.147 22.875,29.614 33.553,46.911 27.145,43.976 0.421,73.689 0.175,74.263 z"
   id="path4" />
	<g
   opacity="0.8"
   id="g18">
		<path
   fill="#d7e5ff"
   d="m 204.559,97.313 c -0.724,1.99 -1.611,3.875 -2.645,5.643 -2.478,4.241 -5.782,7.808 -9.626,10.565 -8.932,6.408 -20.771,8.441 -31.883,4.402 -13.218,-4.805 -21.708,-16.856 -22.612,-30.039 -0.12,-1.737 -0.109,-3.494 0.043,-5.256 0.251,-2.959 0.894,-5.935 1.957,-8.858 0.858,-2.365 1.951,-4.58 3.239,-6.624 0.015,-0.024 0.029,-0.046 0.044,-0.07 3.577,-5.649 8.657,-10.011 14.501,-12.744 1.656,-0.776 3.376,-1.42 5.141,-1.925 0.842,-0.241 1.695,-0.45 2.555,-0.626 6.028,-1.241 12.464,-0.88 18.675,1.377 0.824,0.299 1.628,0.626 2.414,0.981 1.11,0.499 2.18,1.05 3.21,1.652 4.34,2.53 7.972,5.926 10.756,9.879 h 0.002 c 1.734,2.461 3.14,5.138 4.179,7.957 0.547,1.48 0.993,2.999 1.332,4.547 0.211,0.963 0.382,1.937 0.511,2.919 0.311,2.362 0.375,4.772 0.18,7.194 -0.244,3.015 -0.891,6.047 -1.973,9.026 z"
   id="path6" />
		<g
   id="g16">
			<path
   fill="#aec3ff"
   d="m 166.444,67.047 c -2.036,1.577 -1.496,5.796 -5.021,3.418 -3.525,-2.378 -5.737,-3.671 -6.735,-1.596 -0.999,2.076 2.124,3.211 1.303,5.473 -0.822,2.262 -2.494,2.5 -4.257,0.644 -1.765,-1.857 -1.815,-3.645 -4.672,-3.585 -2.855,0.059 -4.074,-1.116 -3.936,-3.259 0.023,-0.377 -0.015,-0.704 -0.094,-0.994 0.015,-0.024 0.029,-0.046 0.044,-0.07 3.577,-5.649 8.657,-10.011 14.501,-12.744 1.656,-0.776 3.376,-1.42 5.141,-1.925 0.842,-0.241 1.695,-0.45 2.555,-0.626 0.996,0.404 2.063,1.226 2.629,2.872 1.243,3.623 3.26,2.771 1.548,5.806 -1.714,3.034 -1.008,3.779 0.861,4.336 1.869,0.557 4.024,1.34 3.729,2.819 -0.293,1.477 -5.56,-2.146 -7.596,-0.569 z"
   id="path8" />
			<path
   fill="#aec3ff"
   d="m 204.559,97.313 c -0.724,1.99 -1.611,3.875 -2.645,5.643 -2.478,4.241 -5.782,7.808 -9.626,10.565 -0.958,-0.031 -1.83,-0.354 -2.564,-1.012 -3.45,-3.083 1.123,-6.357 3.531,-7.951 2.407,-1.594 -2.063,-2.121 -4.318,-5.227 -2.254,-3.105 3.024,-7.313 -0.367,-7.541 -3.393,-0.227 -7.519,-0.447 -8.209,-4.081 -0.69,-3.634 2.878,-2.886 2.253,-5.947 -0.624,-3.062 2.327,-3.635 5.484,-2.761 3.157,0.873 3.546,-1.454 7.459,-0.397 3.914,1.057 2.071,5.874 6.389,7.077 4.317,1.203 3.775,2.104 3.775,2.104 0.306,0.102 0.576,0.271 0.811,0.503 -0.244,3.014 -0.891,6.046 -1.973,9.025 z"
   id="path10" />
			<path
   fill="#aec3ff"
   d="m 206.352,81.095 c -4.109,0.43 -3.832,-4.701 -7.322,-4.397 -3.518,0.307 -2.012,-2.195 -3.754,-4.779 -1.744,-2.583 -7.616,-1.184 -6.423,-3.798 1.193,-2.613 4.474,-0.568 6.011,-2.448 1.537,-1.878 4.786,-0.088 4.786,-0.088 0.223,-0.003 0.45,0.024 0.679,0.086 0,0 0.001,-0.002 0.002,0 1.734,2.461 3.14,5.138 4.179,7.957 0.547,1.48 0.993,2.999 1.332,4.547 0.21,0.964 0.381,1.937 0.51,2.92 z"
   id="path12" />
			<path
   fill="#aec3ff"
   d="m 180.306,61.113 c 0,0 2.791,-1.976 0.166,-3.812 -2.624,-1.836 -2.94,-0.797 -5.114,-1.86 -2.174,-1.063 -3.699,0.364 -2.697,2.893 1.001,2.528 1.041,6.695 3.286,5.297 2.244,-1.397 2.487,-2.985 4.359,-2.518 z"
   id="path14" />
		</g>
	</g>
	<path
   fill="#a8d29f"
   d="m 19.21,199.116 h 12.017 c 0.644,-0.546 -0.445,-1.786 -1.584,-1.87 -0.495,-0.037 -1.12,0.066 -1.834,0.218 -0.166,-2.196 -1.11,-12.07 -4.669,-11.674 -4.002,0.444 0,4.349 1.131,6.659 0.838,1.713 1.722,4.167 2.126,5.326 -0.325,0.07 -0.661,0.14 -1.005,0.203 -0.531,-1.629 -2.504,-7.107 -5.014,-6.788 -2.947,0.374 -1.762,2.57 0.326,3.874 1.532,0.959 3.414,2.321 4.308,2.979 -0.758,0.124 -1.548,0.207 -2.35,0.188 -2.057,-0.047 -3.062,0.559 -3.452,0.885 z"
   id="path20" />
	<path
   fill="#a8d29f"
   d="M 210.462,199.116 H 199.3 c -0.598,-0.507 0.414,-1.659 1.472,-1.736 0.459,-0.035 1.04,0.062 1.704,0.201 0.153,-2.04 1.03,-11.212 4.336,-10.843 3.718,0.412 0,4.039 -1.051,6.186 -0.778,1.59 -1.6,3.871 -1.975,4.947 0.302,0.065 0.614,0.129 0.934,0.188 0.493,-1.513 2.325,-6.602 4.657,-6.306 2.736,0.348 1.637,2.388 -0.303,3.599 -1.424,0.891 -3.172,2.156 -4.002,2.768 0.703,0.115 1.438,0.192 2.183,0.176 1.912,-0.046 2.846,0.517 3.207,0.82 z"
   id="path22" />
	<g
   id="g72">
		<path
   fill="#ffb27d"
   d="m 218.434,125.949 c 0,0 0.266,-2.643 -1.116,-2.552 -1.382,0.091 -1.747,0.725 -1.593,1.232 0.154,0.507 1.498,2.188 1.498,2.188 z"
   id="path24" />
		<path
   fill="#739af0"
   d="m 239.965,131.244 c 0,0 -1.53,1.797 -4.82,3.871 -0.311,0.197 -0.637,0.396 -0.98,0.595 -1.277,0.744 -2.776,1.507 -4.507,2.218 -0.19,0.078 -0.414,0.164 -0.665,0.255 -1.972,0.712 -5.599,1.721 -7.847,1.812 -0.195,0.008 -0.381,0.008 -0.554,0.001 -3.421,-0.138 -3.838,-13.416 -3.838,-13.416 0,0 0.381,-1.329 2.139,-0.994 0,0 2.669,7.499 3.626,8.11 0.85,0.543 5.733,-6.859 9.937,-7.378 2.829,-0.349 7.509,4.926 7.509,4.926 z"
   id="path26" />
		<path
   fill="#1c3154"
   d="m 230.773,195.994 c 0,0 0.253,2.923 -0.365,3.228 l -7.907,-0.017 c 0,0 0,-0.912 1.271,-1.115 1.27,-0.203 3.501,-0.946 3.879,-2.603 0.376,-1.656 3.122,0.507 3.122,0.507 z"
   id="path28" />
		<path
   fill="#2a4e96"
   d="m 224.969,160.618 c 0.039,1.911 0.131,3.882 0.311,5.654 0.854,8.407 1.154,18.565 1.276,20.523 0.213,3.4 0.885,8.831 0.885,8.831 0,0 1.332,1.266 3.929,0.661 0,0 2.151,-7.822 2.632,-16.06 0.007,-0.135 0.015,-0.271 0.021,-0.406 0.056,-1.089 0.114,-2.334 0.174,-3.678 0.396,-8.993 0.825,-22.354 0.825,-22.354 L 225.1,151.46 c 0,0.002 -0.229,4.394 -0.131,9.158 z"
   id="path30" />
		<path
   fill="#233862"
   d="m 224.969,160.618 c 2.515,4.338 7.308,12.331 9.228,15.526 0.396,-8.993 0.825,-22.354 0.825,-22.354 l -9.922,-2.329 c 0,10e-4 -0.229,4.393 -0.131,9.157 z"
   id="path32" />
		<path
   fill="#6385db"
   d="m 228.992,138.183 c -1.972,0.712 -5.599,1.721 -7.847,1.812 0.344,-0.064 2.847,-0.561 3.772,-1.678 0.994,-1.201 2.668,-4.464 3.999,-3.133 0.628,0.627 0.444,1.865 0.076,2.999 z"
   id="path34" />
		<path
   fill="#ffb27d"
   d="m 245.665,159.205 c 0,0 0.615,2.414 0.515,2.951 -0.102,0.537 -0.702,2.354 -1.077,2.806 -0.375,0.45 -0.391,-1.96 -0.64,-2.34 -0.249,-0.378 -0.114,0.9 -0.314,1.005 -0.199,0.105 -0.532,-0.969 -0.681,-1.349 -0.148,-0.381 0.532,-1.705 0.596,-2.655 0.062,-0.949 1.601,-0.418 1.601,-0.418 z"
   id="path36" />
		<path
   fill="#1c3154"
   d="m 250.471,192.672 c 0,0 1.408,1.285 1.133,2.197 -0.274,0.913 -1.544,1.521 -1.716,2.637 -0.172,1.116 -0.858,1.724 -1.476,1.724 -0.618,0 -2.946,0 -2.946,0 0,0 -0.455,-0.785 0.644,-1.022 1.099,-0.236 1.513,-1.547 1.444,-2.764 -0.069,-1.217 0.103,-2.838 0.103,-2.838 l 2.335,-0.541 z"
   id="path38" />
		<path
   fill="#2a4e96"
   d="m 226.663,153.995 c 0,0 9.288,19.874 14.231,28.594 4.942,8.721 6.487,11.154 6.487,11.154 0,0 2.832,-1.115 3.089,-1.876 0,0 -1.89,-16.835 -5.2,-20.938 -1.87,-2.319 -4.067,-9.278 -4.17,-11.711 -0.104,-2.435 -2.273,-8.242 -2.273,-8.242 z"
   id="path40" />
		<path
   fill="#739af0"
   d="m 224.932,152.961 c 0,0 3.025,3.255 8.164,4.238 2.256,0.432 6.834,0.849 7.97,-0.757 0.267,-0.377 0.27,-0.936 0.21,-1.808 -0.152,-2.265 -0.723,-6.645 1.851,-15.445 0.239,-0.819 0.4,-1.604 0.494,-2.353 0.562,-4.503 0.501,-7.901 -3.406,-9.718 -5.853,-2.721 -8.255,-0.482 -8.255,-0.482 0,0 -3.113,1.455 -4.536,5.694 -2.846,8.482 -2.492,20.631 -2.492,20.631 z"
   id="path42" />
		<path
   fill="#ffb27d"
   d="m 236.7,126.371 c -0.985,0.7 -2.719,1.113 -4.372,0.287 -0.127,-0.063 -0.111,-0.938 -0.08,-1.797 0.032,-0.843 0.111,-1.67 0.111,-1.67 l 2.083,-1.367 1.987,-1.304 c -0.238,4.485 0.717,5.534 0.271,5.851 z"
   id="path44" />
		<path
   fill="#ed985f"
   d="m 236.08,122.372 c 0,0 -1.352,2.028 -3.832,2.489 0.032,-0.843 0.122,-1.771 0.122,-1.771 l 2.072,-1.267 z"
   id="path46" />
		<path
   fill="#ffb27d"
   d="m 230.494,122.665 c 0,0 5.039,1.88 6.16,-1.225 1.121,-3.105 2.526,-4.952 -0.643,-6.284 -3.17,-1.332 -4.227,-0.371 -4.857,0.574 -0.63,0.946 -1.941,6.366 -0.66,6.935 z"
   id="path48" />
		<path
   fill="#2c3a64"
   d="m 239.793,115.505 c 0.059,-0.045 0.176,-0.067 0.421,-0.032 0,0 -0.17,-0.159 -0.428,-0.217 0.017,-0.348 -0.045,-0.98 -0.598,-1.24 0,0 0.279,0.228 0.249,0.595 -0.536,-0.824 -1.878,-1.611 -5.931,-2.085 -5.341,-0.623 -4.272,3.086 -3.671,3.622 0.601,0.536 2.532,-0.226 3.781,0.126 1.248,0.351 1.127,2.231 1.508,2.568 0.381,0.336 0.3,-0.143 0.934,-0.29 0.635,-0.148 0.499,0.827 0.207,1.422 -0.292,0.594 0.345,1.579 0.345,1.579 0,0 0,0 0.98,-0.711 0.98,-0.711 2.471,-4.248 2.259,-5.107 -0.018,-0.076 -0.036,-0.153 -0.056,-0.23 z"
   id="path50" />
		<path
   fill="#6385db"
   d="m 241.275,154.635 c -0.152,-2.265 -0.723,-6.645 1.851,-15.445 0.239,-0.819 0.4,-1.604 0.494,-2.353 h -0.001 c -1.911,-0.631 -5.394,0.771 -5.394,0.771 0,0 -0.819,11.634 3.05,17.027 z"
   id="path52" />
		<path
   fill="#739af0"
   d="m 241.268,127.707 c 0,0 2.353,0.856 3.853,7.083 0.991,4.114 2.816,10.162 3.022,12.063 0.205,1.899 -2.087,13.026 -2.087,13.026 0,0 -0.323,0.235 -1.115,0.077 -0.758,-0.151 -1.11,-0.664 -1.11,-0.664 0,0 -0.549,-7.416 -0.406,-10.917 0.059,-1.455 -6.734,-10.653 -10.401,-11.839 -1.441,-0.466 8.244,-8.829 8.244,-8.829 z"
   id="path54" />
		<path
   fill="#aec3ff"
   d="m 208.37,119.646 c 0,0 6.798,-0.193 14.644,1.251 l 0.818,-2.064 0.899,-2.264 c 0,0 -7.876,-3.39 -12.609,-8.111 z"
   id="path56" />
		<path
   fill="#f99746"
   d="m 212.229,108.348 -3.902,11.521 v 0 c -0.571,-0.169 -0.884,-0.781 -0.685,-1.343 l 3.436,-9.68 c 0.166,-0.469 0.695,-0.698 1.151,-0.498 z"
   id="path58" />
		<path
   fill="#f99746"
   d="m 215.955,128.222 v 0 c 0.76,0.152 1.504,-0.345 1.656,-1.104 l 1.344,-6.724 c 0.151,-0.76 -0.346,-1.504 -1.104,-1.656 v 0 c -0.759,-0.151 -1.504,0.346 -1.655,1.104 l -1.344,6.724 c -0.153,0.759 0.344,1.504 1.103,1.656 z"
   id="path60" />
		<path
   fill="#739af0"
   d="m 208.37,119.646 c 0,0 6.798,-0.193 14.644,1.251 l 0.818,-2.064 c -7.37,-1.506 -15.462,0.813 -15.462,0.813 z"
   id="path62" />
		<path
   fill="#f99746"
   d="m 220.844,120.482 2.125,0.373 c -0.033,0.002 1.973,0.391 2.63,-1.387 0.061,-0.121 0.1,-0.241 0.126,-0.384 0.512,-2.215 -0.705,-2.624 -0.705,-2.624 l -2.734,-1.064 -0.868,3.073 c 0,0 0,0 0.001,0.011 z"
   id="path64" />
		<path
   fill="#ed7d2b"
   d="m 220.844,120.482 2.125,0.373 c -0.033,0.002 1.973,0.391 2.63,-1.387 -1.201,-0.874 -4.182,-0.999 -4.182,-0.999 0,0 0,0 0.001,0.011 z"
   id="path66" />
		<path
   fill="#ffb27d"
   d="m 216.137,121.711 c 0,0 1.039,0.414 0.849,0.871 -0.19,0.458 -1.512,1.088 -1.721,0.727 -0.208,-0.362 0.217,-1.984 0.872,-1.598 z"
   id="path68" />
		<path
   fill="#ffb27d"
   d="m 218.453,125.533 c 0,0 0.197,-1.063 0.209,-1.552 0.012,-0.489 0.069,-0.888 -0.046,-0.901 -0.114,-0.014 -0.198,0.076 -0.245,0.233 -0.047,0.157 -0.227,1.131 -0.227,1.131 l 0.091,0.94 z"
   id="path70" />
	</g>
	<g
   id="g104">
		<path
   fill="#7599ea"
   d="m 115.675,124.839 -5.887,70 c 0,0 -0.617,4.243 2.54,4.251 5.189,0.013 25.83,0 25.83,0 0,0 -3.906,-0.884 -3.858,-2.871 0.056,-2.342 6.881,-72.043 6.881,-72.043 z"
   id="path74" />
		<path
   fill="#90aff4"
   d="m 140.101,197.848 c -1.021,0.003 -21.004,0.037 -26.058,-0.028 -2.202,-0.027 -2.588,-1.958 -2.606,-3.208 -0.009,-0.599 0.066,-1.041 0.066,-1.041 l 0.153,-1.82 0.39,-4.637 0.345,-4.097 0.443,-5.265 0.373,-4.443 4.183,-49.74 25.504,-0.662 c 0,0 -2.874,29.169 -4.907,50.402 -0.228,2.365 -0.443,4.634 -0.643,6.751 -0.065,0.677 -0.127,1.337 -0.188,1.98 -0.189,2.009 -0.361,3.854 -0.511,5.482 -0.079,0.858 -0.152,1.656 -0.218,2.388 -0.259,2.863 -0.412,4.691 -0.414,5.039 -0.001,0.203 0.016,0.392 0.05,0.566 0.42,2.232 3.654,2.333 4.038,2.333 z"
   id="path76" />
		<polygon
   fill="#aec3ff"
   points="70.038,152.237 76.717,179.066 200.801,179.066 176.184,86.748 53.735,86.748 68.075,144.349 "
   id="polygon78" />
		<polygon
   fill="#90aff4"
   points="74.075,181.071 76.718,179.066 53.734,86.748 51.747,87.41 "
   id="polygon80" />
		<polygon
   fill="#7599ea"
   points="200.801,179.066 76.718,179.066 74.075,181.071 197.396,181.071 "
   id="polygon82" />
		<rect
   x="117.382"
   y="197.84801"
   fill="#aec3ff"
   width="26.700001"
   height="1.2690001"
   id="rect84" />
		<polygon
   fill="#5888dd"
   points="112.046,187.113 112.391,183.017 112.555,181.07 137.295,181.07 137.157,182.04 "
   id="polygon86" />
		<path
   opacity="0.4"
   fill="#5888dd"
   d="m 140.101,197.848 c -1.021,0.003 -21.004,0.037 -26.058,-0.028 -2.202,-0.027 -2.588,-1.958 -2.606,-3.208 l 24.992,-4.701 c -0.259,2.863 -0.412,4.691 -0.414,5.039 -10e-4,0.203 0.016,0.392 0.05,0.566 0.418,2.231 3.652,2.332 4.036,2.332 z"
   id="path88" />
		<polygon
   fill="#aec3ff"
   points="196.052,160.943 72.206,160.943 53.734,86.748 176.184,86.748 "
   id="polygon90" />
		<polygon
   fill="#739af0"
   points="71.529,141.407 69.944,135.092 69.298,132.517 65.087,115.744 64.869,114.871 62.643,106.005 61.647,102.038 60.798,98.654 58.807,90.722 171.804,90.722 173.991,98.654 174.923,102.038 176.017,106.005 183.221,132.139 183.221,132.141 183.832,134.354 184.115,135.382 189.09,153.425 190.275,157.728 75.626,157.728 "
   id="polygon92" />
		<polygon
   fill="#607cf4"
   points="58.807,90.722 171.805,90.722 173.991,98.655 60.798,98.655 "
   id="polygon94" />
		<g
   id="g102">
			<path
   fill="#e9f3fe"
   d="m 63.481,94.307 c -0.137,-0.547 0.197,-0.991 0.744,-0.991 0.548,0 1.103,0.444 1.239,0.991 0.137,0.548 -0.197,0.992 -0.745,0.992 -0.546,0 -1.101,-0.445 -1.238,-0.992 z"
   id="path96" />
			<path
   fill="#e9f3fe"
   d="m 66.776,94.307 c -0.136,-0.547 0.197,-0.991 0.745,-0.991 0.548,0 1.103,0.444 1.239,0.991 0.136,0.548 -0.197,0.992 -0.745,0.992 -0.548,0 -1.102,-0.445 -1.239,-0.992 z"
   id="path98" />
			<path
   fill="#e9f3fe"
   d="m 70.325,94.307 c -0.137,-0.547 0.197,-0.991 0.745,-0.991 0.547,0 1.102,0.444 1.239,0.991 0.137,0.548 -0.197,0.992 -0.745,0.992 -0.548,0 -1.103,-0.445 -1.239,-0.992 z"
   id="path100" />
		</g>
	</g>
	<path
   fill="#f77d48"
   d="m 149.326,44.603 c 4.634,-5.441 11.779,-16.37 16.591,-21.967 0.99,-1.152 0.167,-2.93 -1.353,-2.93 h -8.754 l 8.257,-18.672 c 0.354,-0.797 -0.733,-1.433 -1.255,-0.734 l -19.966,26.723 c -0.583,0.78 0.054,1.877 1.021,1.758 l 9.91,-1.22 -5.896,16.197 c -0.324,0.891 0.83,1.567 1.445,0.845 z"
   id="path106" />
	<path
   fill="#aec3ff"
   d="m 108.11,77.741 c 1.042,-5.347 1.701,-15.279 2.802,-20.795 0.227,-1.136 -0.985,-2.008 -1.994,-1.44 l -5.814,3.274 -1.5,-15.49 c -0.064,-0.662 -1.023,-0.677 -1.108,-0.018 L 97.23,68.489 c -0.095,0.735 0.738,1.226 1.335,0.786 l 6.126,-4.518 2.142,12.963 c 0.119,0.715 1.138,0.731 1.277,0.021 z"
   id="path108" />
	<g
   id="g122">
		<path
   fill="#e6efff"
   d="M 195.284,159.307 95.663,167.7 c -7.564,0.637 -13.039,-7.074 -9.941,-14.005 l 42.206,-94.458 c 3.202,-7.166 13.044,-7.995 17.4,-1.466 l 57.415,86.064 c 4.212,6.315 0.106,14.835 -7.459,15.472 z"
   id="path110" />
		<g
   id="g114">
			<path
   fill="#f77d48"
   d="m 195.602,163.075 -99.621,8.394 c -4.9,0.412 -9.524,-1.734 -12.37,-5.744 -2.846,-4.01 -3.348,-9.083 -1.342,-13.572 l 42.206,-94.457 c 2.074,-4.642 6.336,-7.667 11.403,-8.095 5.066,-0.427 9.775,1.844 12.595,6.073 l 57.415,86.064 c 2.729,4.09 3.084,9.176 0.948,13.605 -2.135,4.428 -6.335,7.319 -11.234,7.732 z M 136.512,57.137 c -2.28,0.192 -4.199,1.554 -5.132,3.644 l -42.206,94.458 c -0.903,2.021 -0.677,4.304 0.604,6.108 1.281,1.805 3.362,2.771 5.567,2.585 l 99.622,-8.393 c 2.205,-0.187 4.096,-1.487 5.057,-3.48 0.961,-1.994 0.801,-4.283 -0.427,-6.124 L 142.182,59.871 c -1.27,-1.904 -3.39,-2.926 -5.67,-2.734 z"
   id="path112" />
		</g>
		<g
   id="g120">
			<g
   id="g118">
				<path
   fill="#f77d48"
   d="m 134.178,144.855 c -0.108,-1.283 0.021,-2.489 0.388,-3.617 0.366,-1.128 0.935,-2.126 1.705,-2.994 0.77,-0.868 1.723,-1.576 2.862,-2.123 1.137,-0.545 2.444,-0.881 3.919,-1.006 1.475,-0.124 2.829,-0.012 4.063,0.334 1.233,0.347 2.303,0.885 3.207,1.61 0.904,0.728 1.631,1.617 2.182,2.667 0.55,1.051 0.879,2.219 0.987,3.502 0.108,1.284 -0.022,2.48 -0.391,3.589 -0.368,1.109 -0.937,2.098 -1.707,2.965 -0.77,0.868 -1.733,1.577 -2.892,2.124 -1.158,0.548 -2.476,0.885 -3.95,1.01 -1.475,0.124 -2.818,0.011 -4.031,-0.337 -1.215,-0.348 -2.273,-0.886 -3.178,-1.613 -0.904,-0.727 -1.631,-1.605 -2.179,-2.638 -0.549,-1.03 -0.877,-2.188 -0.985,-3.473 z m 15.402,-18.022 -14.35,1.209 -6.164,-48.859 18.416,-1.551 z"
   id="path116" />
			</g>
		</g>
	</g>
	<g
   id="g172">
		<path
   fill="#ffb27d"
   d="m 72.316,129.829 c 0,0 0.313,-0.702 0.515,-1.035 0.203,-0.332 1.067,-1.308 1.214,-1.087 0.147,0.222 0.735,1.707 0.423,2.122 -0.313,0.416 0.021,1.14 -1.534,1.578 z"
   id="path124" />
		<path
   fill="#ed7d2b"
   d="m 55.039,125.394 c 0,0 7.959,6.644 11.063,6.028 2.426,-0.48 6.263,-1.697 6.263,-1.697 0,0 1.013,0.963 0.726,2.117 0,0 -4.888,4.6 -8.37,4.629 -5.443,0.047 -8.01,-2.697 -8.01,-2.697 z"
   id="path126" />
		<path
   fill="#113c68"
   d="m 41.081,195.47 c 0,0 0.231,3.727 0.952,3.78 0.096,0.007 3.657,0.007 3.657,0.007 l 4.546,-0.025 c 0,0 -0.03,-1.096 -1.359,-1.327 -1.329,-0.231 -3.553,-1.166 -4.358,-2.922 -0.847,-1.849 -3.438,0.487 -3.438,0.487 z"
   id="path128" />
		<path
   fill="#2a4e96"
   d="m 40.818,195.729 c 0,0 1.382,0.462 2.461,0.462 1.204,0 2.297,-0.327 2.297,-0.327 0,0 0.26,-2.517 1.692,-8.061 0.75,-2.906 1.822,-6.643 3.348,-11.285 4.217,-12.831 5.5,-20.338 5.616,-21.048 0.006,-0.038 0.009,-0.057 0.009,-0.057 l -0.014,-0.006 -12.964,-5.692 c 0,0 1.603,17.685 -0.442,24.472 -0.287,0.949 -0.532,2.055 -0.742,3.253 -1.29,7.373 -1.261,18.289 -1.261,18.289 z"
   id="path130" />
		<path
   fill="#233862"
   d="m 47.269,187.803 c 0.75,-2.906 1.822,-6.643 3.348,-11.285 4.217,-12.831 5.5,-20.338 5.616,-21.048 -10e-4,-0.021 -0.002,-0.042 -0.005,-0.063 l -12.964,-5.692 c 0,0 1.603,17.685 -0.442,24.472 -0.287,0.949 4.447,13.616 4.447,13.616 z"
   id="path132" />
		<path
   fill="#15447c"
   d="m 51.206,195.47 c 0,0 0.231,3.727 0.953,3.78 0.096,0.007 3.657,0.007 3.657,0.007 l 4.547,-0.025 c 0,0 -0.03,-1.096 -1.359,-1.327 -1.329,-0.231 -3.553,-1.166 -4.358,-2.922 -0.848,-1.849 -3.44,0.487 -3.44,0.487 z"
   id="path134" />
		<path
   fill="#2a4e96"
   d="m 58.557,150.132 c 0,0 0.168,11.46 -1.814,25.53 -1.982,14.07 -1.311,20.043 -1.311,20.043 0,0 -1.362,0.441 -1.912,0.485 -1.4,0.114 -2.836,-0.328 -2.836,-0.328 0,0 -2.838,-14.075 -2.024,-21.118 0.813,-7.043 -3.886,-24.166 -3.886,-24.166 z"
   id="path136" />
		<path
   fill="#ffb27d"
   d="m 49.364,123.314 2.531,1.659 2.305,-0.651 c 0.421,-0.601 0.533,-1.76 0.539,-2.764 0.006,-0.996 -0.09,-1.841 -0.09,-1.841 l -3.415,-1.507 -1.274,-0.561 c 0.004,0.02 0.099,1.045 0.113,1.195 0.238,2.663 -0.709,4.47 -0.709,4.47 z"
   id="path138" />
		<path
   fill="#f99746"
   d="m 58.615,153.317 c -3.15,3.041 -15.071,2.53 -15.806,-0.821 -0.733,-3.351 0.801,-28.524 6.182,-30.105 1.116,-0.328 7.086,1.602 7.086,1.602 0,0 0.937,2.45 1.551,5.57 0.119,0.606 0.467,7.039 0.728,13.059 0.122,2.814 0.224,5.539 0.277,7.533 0.047,1.868 0.05,3.096 -0.018,3.162 z"
   id="path140" />
		<path
   fill="#fca56b"
   d="m 50.328,118.893 c 0.692,1.172 3.123,2.196 4.411,2.666 0.006,-0.996 -0.09,-1.841 -0.09,-1.841 l -3.415,-1.507 c -0.755,-0.01 -1.214,0.159 -0.906,0.682 z"
   id="path142" />
		<path
   fill="#ffb27d"
   d="m 55.936,119.51 c 0,0 -5.501,1.717 -6.517,-1.726 -1.016,-3.442 -2.41,-5.54 1.059,-6.78 3.47,-1.242 4.543,-0.131 5.162,0.937 0.618,1.065 1.701,7.035 0.296,7.569 z"
   id="path144" />
		<path
   fill="#163560"
   d="m 55.423,111.608 c 0,0 -0.351,4.006 -1.179,3.832 -0.829,-0.174 -1.74,-0.546 -1.619,0.662 0.122,1.207 -0.806,3.277 -2,3.272 -2.562,-0.011 -5.346,-6.585 -4.644,-7.832 2.023,-3.596 12.367,-4.321 9.442,0.066 z"
   id="path146" />
		<path
   fill="#ed7d2b"
   d="m 54.614,122.478 c -0.071,-0.03 -4.096,-1.835 -4.566,-1.68 -0.47,0.155 -1.057,1.593 -1.057,1.593 l 7.086,1.602 c 0,-10e-4 -0.558,-1.134 -1.463,-1.515 z"
   id="path148" />
		<g
   id="g160">
			<path
   fill="#1f4d84"
   d="m 79.668,141.974 -22.559,21.239 c -0.442,0.416 -1,0.549 -1.239,0.295 l -0.761,-0.809 c -0.239,-0.255 -0.074,-0.803 0.369,-1.22 L 78.037,140.24 c 0.442,-0.416 1,-0.549 1.239,-0.295 l 0.761,0.809 c 0.239,0.255 0.073,0.803 -0.369,1.22 z"
   id="path150" />
			<path
   fill="#739af0"
   d="m 67.009,153.893 -9.899,9.32 c -0.442,0.416 -1,0.549 -1.239,0.295 l -0.761,-0.809 c -0.239,-0.255 -0.074,-0.803 0.369,-1.22 l 9.899,-9.319 z"
   id="path152" />
			<path
   fill="#1f4d84"
   d="m 74.483,133.954 c 0.866,2.854 2.47,5.527 4.799,7.719 7.112,6.69 18.303,6.349 24.994,-0.763 6.603,-7.02 6.357,-18.007 -0.486,-24.726 -0.09,-0.09 -0.183,-0.18 -0.277,-0.268 -7.111,-6.69 -18.301,-6.352 -24.992,0.761 -4.501,4.785 -5.821,11.414 -4.038,17.277 z m 5.054,-16.319 c 3.894,-4.139 9.442,-5.789 14.652,-4.887 3.036,0.525 5.956,1.916 8.368,4.186 6.551,6.163 6.864,16.469 0.702,23.02 -2.27,2.412 -5.099,3.978 -8.095,4.688 -5.147,1.218 -10.786,-0.09 -14.925,-3.984 -6.551,-6.165 -6.866,-16.471 -0.702,-23.023 z"
   id="path154" />
			<g
   opacity="0.5"
   id="g158">
				<path
   fill="#b3cff9"
   d="m 103.259,139.953 c -2.269,2.412 -5.099,3.978 -8.096,4.688 -5.146,1.218 -10.785,-0.09 -14.925,-3.984 -6.551,-6.163 -6.865,-16.47 -0.702,-23.021 3.894,-4.139 9.443,-5.788 14.652,-4.886 3.037,0.524 5.957,1.916 8.368,4.185 6.552,6.162 6.866,16.467 0.703,23.018 z"
   id="path156" />
			</g>
		</g>
		<path
   fill="#ed7d2b"
   d="m 58.632,150.154 c -12.43,-8.857 -11.397,-20.677 -11.397,-20.677 4.543,2.563 9.052,8.229 11.12,13.144 0.122,2.815 0.225,5.539 0.277,7.533 z"
   id="path162" />
		<g
   id="g168">
			<path
   fill="#ffb27d"
   d="m 70.9,146.121 c 0.877,-0.202 1.465,-0.865 1.588,-0.98 0,0 0.374,0.025 -0.062,0.822 -0.037,0.067 -0.117,0.238 -0.178,0.359 -0.025,0.05 0.01,0.107 0.065,0.111 0.506,0.039 1.015,-0.162 1.989,0.042 0.134,0.028 0.173,0.35 0.168,0.487 -0.009,0.232 0.008,0.492 -0.262,0.849 -0.157,0.207 -0.595,0.43 -1.571,0.823 -0.372,0.149 -1.434,0.036 -2.43,-0.306 l -0.796,-0.368 0.247,-1.479 0.2,0.042 c 0.318,0.067 0.711,-0.321 1.042,-0.402 z"
   id="path164" />
			<path
   fill="#f99746"
   d="m 51.093,123.992 c 0,0 -11.168,2.127 3.286,18.301 2.312,2.587 14.802,5.955 14.802,5.955 0,0 1.267,-1.078 0.628,-1.95 0,0 -8.6,-6.245 -10.492,-7.238 -0.852,-0.446 -3.304,-9.968 -4.691,-12.26 -1.387,-2.293 -3.533,-2.808 -3.533,-2.808 z"
   id="path166" />
		</g>
		<path
   fill="#ffb27d"
   d="m 72.62,130.025 c 0,0 0.365,-0.697 0.437,-1.066 0.071,-0.368 0.531,-1.442 0.721,-1.631 0.076,-0.076 0.326,0.021 0.356,0.348 0.013,0.142 -0.057,0.398 -0.18,0.706 -0.2,0.5 -0.167,1.178 -0.236,1.403 -0.174,0.564 -1.098,0.24 -1.098,0.24 z"
   id="path170" />
	</g>
	<g
   id="g222">
		<g
   id="g214">
			<path
   fill="#ffb27d"
   d="m 77.064,102.314 c -0.19,0.218 -0.214,0.461 -0.121,0.721 0,0.001 0.001,0.002 0.002,0.003 0.174,0.48 0.748,1.018 1.415,1.554 0.085,0.068 0.161,0.131 0.227,0.189 0.017,0.015 0.035,0.03 0.051,0.045 0.013,0.012 0.026,0.024 0.039,0.035 0.622,0.574 0.388,0.705 1.505,1.869 1.274,1.326 2.151,1.351 2.4,1.229 0.211,-0.103 -0.217,-0.806 -0.693,-1.597 -0.022,-0.037 -0.045,-0.076 -0.069,-0.115 -0.063,-0.104 -0.126,-0.212 -0.189,-0.316 -0.557,-0.952 -0.414,-1.398 -0.281,-2.813 0.107,-1.15 1.792,-6.425 1.792,-6.425 l -2.441,-0.422 c 0,0 -0.737,4.201 -1.547,4.847 -0.433,0.345 -0.918,0.349 -1.334,0.604 -0.029,0.018 -0.059,0.036 -0.087,0.055 -0.237,0.158 -0.478,0.32 -0.669,0.537 z"
   id="path174" />
			<path
   fill="#233862"
   d="m 77.064,102.314 c -0.19,0.218 -0.214,0.461 -0.121,0.721 0,0.001 0.001,0.002 0.002,0.003 0.213,0.48 0.772,1.014 1.417,1.549 0.084,0.069 0.159,0.134 0.225,0.194 0.017,0.015 0.035,0.03 0.051,0.045 0.013,0.012 0.026,0.024 0.039,0.035 0.622,0.574 0.388,0.705 1.505,1.869 1.274,1.326 2.151,1.351 2.4,1.229 0.211,-0.103 -0.217,-0.806 -0.693,-1.597 -0.248,-0.091 -1.399,-0.559 -2.27,-1.674 -0.739,-0.943 -1.241,-2.146 -1.744,-2.884 -0.055,-0.011 -0.088,-0.017 -0.144,-0.027 -0.235,0.158 -0.476,0.32 -0.667,0.537 z"
   id="path176" />
			<path
   fill="#ffb27d"
   d="m 96.753,100.796 c 0.15,0.753 1.225,0.628 2.425,0.335 1.201,-0.293 0.915,0.056 2.624,-0.133 1.708,-0.188 2.226,-0.825 2.278,-1.079 0.047,-0.226 -0.797,-0.305 -1.703,-0.41 -0.114,-0.013 -0.229,-0.026 -0.343,-0.041 -1.022,-0.129 -1.771,-0.789 -2.699,-1.331 -0.879,-0.514 -2.191,-2.604 -2.191,-2.604 l -2.343,0.185 c 0,0 1.229,1.868 1.704,2.68 0.279,0.478 0.264,1.109 0.229,1.597 -0.017,0.265 -0.034,0.536 0.019,0.801 z"
   id="path178" />
			<path
   fill="#233862"
   d="m 99.178,101.132 c 1.201,-0.293 0.915,0.056 2.624,-0.133 1.708,-0.188 2.226,-0.825 2.278,-1.079 0.047,-0.226 -0.797,-0.305 -1.703,-0.41 l -0.009,0.018 c 0,0 -1.024,0.726 -2.446,0.76 -1.159,0.028 -2.387,-0.305 -3.187,-0.292 -0.018,0.265 -0.035,0.536 0.018,0.801 0.15,0.753 1.225,0.628 2.425,0.335 z"
   id="path180" />
			<path
   fill="#233862"
   d="m 87.78,85.813 -2.192,5.893 -2.861,7.693 c 0,0 -0.776,0.075 -1.519,-0.139 -0.684,-0.198 -1.469,-0.715 -1.469,-0.715 0,0 0.797,-8.262 2.279,-13.004 0.38,-1.217 0.806,-2.202 1.275,-2.756 2.297,-2.712 4.487,3.028 4.487,3.028 z"
   id="path182" />
			<path
   fill="#2a4e96"
   d="m 85.557,76.454 c -1.247,-0.402 -4.5,-0.008 -8.028,0.63 -0.975,0.176 -1.957,-0.27 -2.47,-1.117 v 0 L 66.18,75.271 c 0,0 -2.932,6.496 -1.329,10.637 0.235,0.608 0.752,0.988 1.551,1.001 0,0 0,0 0,0 0,0 5.365,0.009 7.081,0.01 4.416,0.001 9.346,-3.032 9.983,-3.16 1.044,-0.208 1.46,1.879 2.504,4.072 1.043,2.192 9.808,9.709 9.808,9.709 0,0 1.347,0.014 1.904,-0.195 0.599,-0.224 0.818,-0.516 0.818,-0.516 0,0 -9.708,-19.33 -12.943,-20.375 z"
   id="path184" />
			<path
   fill="#233862"
   d="m 74.125,49.894 c -0.659,-0.393 -1.302,-0.453 -1.696,-0.442 -0.274,0.008 -0.547,-0.01 -0.819,-0.05 -3.388,-0.498 -5.431,4.423 -5.551,5.911 -0.22,2.73 -1.665,3.146 -3.699,4.855 -4.078,3.427 -2.884,7.412 -0.655,8.893 1.337,0.889 3.695,10e-4 3.695,10e-4 0.034,0.023 6.449,-3.583 9.611,-5.323 4.74,-0.672 1.017,-12.711 -0.886,-13.845 z"
   id="path186" />
			<path
   fill="#ffb27d"
   d="m 72.361,62.257 c 0.014,0.009 -1.556,0.544 -2.605,0.079 -0.987,-0.437 -1.735,-2.061 -1.72,-2.062 0.45,-0.021 0.943,-0.413 1.323,-2.99 l 0.191,0.069 3.215,1.158 c 0,0 -0.234,1.032 -0.384,2.014 -0.127,0.825 -0.195,1.615 -0.02,1.732 z"
   id="path188" />
			<path
   fill="#ed975d"
   d="m 72.766,58.511 c 0,0 -0.129,0.557 -0.316,1.597 -1.847,-0.333 -2.639,-1.756 -2.899,-2.755 z"
   id="path190" />
			<path
   fill="#ffb27d"
   d="m 73.245,59.536 c 0,0 -4.399,-0.592 -3.989,-3.326 0.411,-2.734 0.12,-4.652 2.946,-4.389 2.826,0.262 3.214,1.387 3.299,2.333 0.084,0.946 -1.102,5.465 -2.256,5.382 z"
   id="path192" />
			<path
   fill="#233862"
   d="m 75.341,52.655 c 0,0 -2.817,2.426 -4.733,2.621 -1.916,0.195 -2.641,-0.42 -2.641,-0.42 0,0 1.129,-0.937 1.809,-2.45 0.201,-0.446 0.624,-0.752 1.111,-0.793 1.368,-0.118 3.961,-0.172 4.454,1.042 z"
   id="path194" />
			<path
   fill="#233862"
   d="m 73.581,52.437 c 0,0 0.942,0.912 1.238,1.587 0.286,0.652 0.372,2.211 0.143,2.831 0,0 1.469,-2.854 0.639,-4.241 -0.881,-1.471 -2.02,-0.177 -2.02,-0.177 z"
   id="path196" />
			<path
   fill="#f99746"
   d="m 76.064,68.739 c -0.136,8.906 -0.039,7.045 -1.014,7.889 -0.234,0.204 -0.895,0.325 -1.763,0.382 -2.731,0.18 -7.531,-0.271 -7.713,-0.776 -0.629,-1.747 -0.185,-2.289 -0.709,-4.962 -0.055,-0.284 -0.123,-0.592 -0.202,-0.927 -0.438,-1.837 -0.864,-2.461 0.691,-5.411 1.411,-2.671 2.876,-4.839 3.008,-4.761 3.719,2.209 4.019,0.354 4.019,0.354 0,0 3.749,3.868 3.683,8.212 z"
   id="path198" />
			<path
   fill="#2a4e96"
   d="m 85.588,91.706 -2.861,7.693 c 0,0 -0.776,0.075 -1.519,-0.139 -0.684,-0.198 -1.469,-0.715 -1.469,-0.715 0,0 0.797,-8.262 2.279,-13.004 z"
   id="path200" />
			<path
   fill="#f99746"
   d="m 72.382,60.525 c 0,0 3.827,0.65 4.275,2.298 0.449,1.648 1.925,11.65 1.925,11.65 0,0 -1.08,1.054 -1.978,0.155 -0.898,-0.899 -2.826,-9.359 -2.826,-9.359 z"
   id="path202" />
			<path
   fill="#ed7d2b"
   d="m 73.287,77.01 c -2.731,0.18 -7.531,-0.271 -7.713,-0.776 -0.629,-1.747 -0.185,-2.289 -0.709,-4.962 l 1.318,-3.708 c 0,0 -0.219,4.13 0.999,5.217 1.216,1.086 4.986,2.099 5.578,3.006 0.285,0.435 0.472,0.872 0.527,1.223 z"
   id="path204" />
			<path
   fill="#ffb27d"
   d="m 70.159,75.272 c 0,0 2.694,-0.599 3.129,-0.36 0.435,0.239 1.497,1.11 1.629,1.414 0.133,0.303 -0.968,-0.23 -1.326,-0.327 -0.231,-0.062 -0.842,0.149 -1.145,0.25 -1.271,0.424 -2.051,0.206 -2.051,0.206 z"
   id="path206" />
			<path
   fill="#f99746"
   d="m 68.36,60.17 c 0,0 -3.618,0.222 -4.87,1.968 -1.764,2.458 -5.265,12.935 -3.261,14.333 2.256,1.574 10.272,0.415 10.272,0.415 0,0 0.267,-1.247 -0.104,-1.85 -0.371,-0.604 -6.401,-1.58 -6.68,-1.858 -0.278,-0.279 3.481,-5.426 3.481,-6.262 0.001,-0.833 1.162,-6.746 1.162,-6.746 z"
   id="path208" />
			<path
   fill="#ffb27d"
   d="m 73.418,75.662 c 0,0 0.564,0.729 0.75,0.815 0.186,0.086 0.304,0.065 0.304,0.065 l -0.38,-0.685 z"
   id="path210" />
			<path
   fill="#ffb27d"
   d="m 73.288,74.912 1.641,0.798 c 0,0 -0.07,0.114 -0.272,0.105 -0.202,-0.009 -0.711,-0.196 -0.711,-0.196 z"
   id="path212" />
		</g>
		<polygon
   fill="#233862"
   points="70.158,77.163 87.149,77.169 87.302,76.791 70.158,76.785 "
   id="polygon216" />
		<polygon
   fill="#233862"
   points="91.059,67.458 78.096,67.454 74.167,77.165 87.149,77.169 "
   id="polygon218" />
		<path
   fill="#ffffff"
   d="m 83.874,72.312 c 0.098,-0.341 -0.099,-0.618 -0.44,-0.618 -0.341,0 -0.698,0.276 -0.796,0.618 -0.098,0.341 0.1,0.618 0.441,0.618 0.341,0 0.697,-0.277 0.795,-0.618 z"
   id="path220" />
	</g>
	<g
   id="g264">
		<path
   fill="#163560"
   d="m 171.736,113.787 c -1.749,-0.581 -2.96,0.152 -2.96,0.152 -5.035,0.207 -5.223,5.368 -4.631,7.289 0.83,2.698 -2.107,4.825 1.15,5.917 3.78,1.267 6.952,-0.236 6.735,0.417 11.956,0.942 3.684,-12.454 -0.294,-13.775 z"
   id="path224" />
		<path
   fill="#f99746"
   d="m 166.514,138.892 c 0,0 -0.479,0.947 -1.347,2.036 -1.046,1.31 -6.536,-1.8 -6.063,-2.036 0.473,-0.237 3.232,-8.185 3.889,-9.184 0.657,-0.999 2.896,-1.518 2.896,-1.518 z"
   id="path226" />
		<path
   fill="#1f447f"
   d="m 185.041,192.498 c 0,0 1.516,1.383 1.22,2.365 -0.296,0.982 -1.663,1.639 -1.848,2.839 -0.186,1.201 -0.924,1.856 -1.59,1.856 -0.665,0 -3.171,0 -3.171,0 0,0 -0.49,-0.846 0.692,-1.1 1.183,-0.256 1.629,-1.666 1.555,-2.977 -0.074,-1.311 0.111,-3.057 0.111,-3.057 l 2.513,-0.583 z"
   id="path228" />
		<path
   fill="#1c3154"
   d="m 172.215,193.085 c 0,0 0.546,5.858 -0.12,6.187 l -8.514,-0.018 c 0,0 0,-0.982 1.367,-1.201 1.368,-0.219 3.771,-1.019 4.177,-2.803 0.406,-1.783 3.09,-2.165 3.09,-2.165 z"
   id="path230" />
		<path
   fill="#f99746"
   d="m 178.765,134.939 c 0,0 0.127,1.789 0,3.936 -0.084,1.423 -1.523,3.329 -1.728,3.8 -0.513,1.183 -1.09,1.375 -1.09,1.375 l -4.471,1.096 -1.572,0.385 -4.956,-1.48 c 0,0 -2.258,-6.302 -1.352,-9.849 0.906,-3.547 2.292,-6.011 2.292,-6.011 0,0 3.368,-0.757 9.311,-0.335 z"
   id="path232" />
		<path
   fill="#ed7d2b"
   d="m 179.19,138.925 c -0.085,1.423 -1.949,3.279 -2.153,3.75 -0.513,1.183 -1.09,1.375 -1.09,1.375 l -4.471,1.096 -0.808,-2.313 c 0,0 6.532,-1.716 5.481,-7.761 z"
   id="path234" />
		<path
   fill="#233862"
   d="m 165.263,145.006 c 0,0 -2.454,7.641 -2.612,10.242 -0.157,2.602 4.693,36.954 4.888,38.152 0.185,1.13 1.587,1.85 1.587,1.85 0,0 0.646,0.381 1.566,0.121 1.277,-0.36 1.682,-0.793 1.682,-0.793 0,0 1.91,-24.5 0.729,-33.252 -1.183,-8.751 -1.197,-16.32 -1.197,-16.32 z"
   id="path236" />
		<path
   fill="#2a4e96"
   d="m 175.663,144.778 c 0,0 3.744,5.024 4.094,8.42 0.349,3.396 0.547,15.325 1.291,18.637 0.743,3.311 3.476,9.682 3.476,20.008 0,0 -0.284,0.593 -1.16,0.907 -0.281,0.102 -0.656,0.199 -1.021,0.282 -0.723,0.166 -1.465,-0.188 -1.795,-0.852 -1.848,-3.72 -7.731,-15.715 -8.033,-18.206 -0.214,-1.762 -2.071,-13.424 -6.124,-20.268 -0.974,-1.643 0.597,-8.177 0.597,-8.177 z"
   id="path238" />
		<path
   fill="#233862"
   d="m 164.871,143.827 c 0,0 0.985,0.779 2.943,0.819 2.338,0.047 8.132,-0.597 8.132,-0.597 0,0 0.258,0.72 0.247,1.479 0,0 -7.076,1.785 -11.177,0.261 0.001,0 -0.528,-0.995 -0.145,-1.962 z"
   id="path240" />
		<g
   id="g244">
			<path
   fill="#ffffff"
   d="m 167.253,146.66 c -0.588,0 -1.066,-0.541 -1.066,-1.207 0,-0.666 0.479,-1.207 1.066,-1.207 0.589,0 1.067,0.541 1.067,1.207 0,0.666 -0.478,1.207 -1.067,1.207 z m 0,-2.06 c -0.394,0 -0.713,0.383 -0.713,0.854 0,0.472 0.319,0.854 0.713,0.854 0.394,0 0.713,-0.383 0.713,-0.854 0,-0.472 -0.32,-0.854 -0.713,-0.854 z"
   id="path242" />
		</g>
		<polygon
   fill="#b5453c"
   points="156.495,136.657 167.132,136.559 172.365,148.857 161.729,148.957 "
   id="polygon246" />
		<path
   fill="#ffb27d"
   d="m 170.975,143.299 -0.779,-0.958 c 0,0 -0.528,-0.47 -0.911,-0.55 -0.383,-0.08 -1.191,-0.547 -1.27,-0.415 -0.078,0.131 0.621,1.068 0.621,1.068 l 0.036,0.005 c -0.804,0.604 -2.831,0.07 -3.081,0.317 -0.304,0.299 0.417,0.944 0.804,1.307 0.387,0.363 1.493,0.967 2.355,0.698 0.63,-0.196 1.622,-0.396 1.622,-0.396 z"
   id="path248" />
		<path
   fill="#ffb27d"
   d="m 157.296,138.821 c 0,0 0.669,-0.76 1.094,-0.396 0.425,0.365 -0.111,2.157 -0.517,1.975 -0.405,-0.181 -0.81,-1.356 -0.577,-1.579 z"
   id="path250" />
		<path
   fill="#f99746"
   d="m 175.199,127.855 c 0,0 3.045,0.335 5.23,4.305 1.723,3.131 4.668,8.902 3.557,10.533 -0.488,0.716 -5.165,3.262 -14.187,1.807 0,0 0.142,-1.14 0.869,-1.668 0,0 7.593,-2.438 7.579,-2.922 -0.024,-0.918 -1.025,-1.71 -5.267,-5.953 -1.152,-1.152 2.219,-6.102 2.219,-6.102 z"
   id="path252" />
		<path
   fill="#ffb27d"
   d="m 172.855,128.016 c 0.105,-0.141 -0.029,-0.588 -0.197,-1.42 -0.15,-0.755 -0.408,-1.922 -0.402,-3.235 l -0.225,0.038 -3.773,0.635 c 0,0 0.086,1.009 0.088,1.959 0,0.008 0,0.017 0,0.024 0.005,0.825 -0.222,2.072 0.057,2.235 1.429,0.838 4.051,0.305 4.452,-0.236 z"
   id="path254" />
		<path
   fill="#e8945b"
   d="m 168.258,124.033 c 0,0 0.075,1.423 0.078,2.373 2.111,-0.051 3.238,-2.101 3.695,-3.008 z"
   id="path256" />
		<path
   fill="#ffb27d"
   d="m 168.03,125.729 c 0,0 4.946,-0.704 4.46,-3.778 -0.485,-3.074 -0.175,-5.235 -3.354,-4.915 -3.179,0.319 -3.605,1.59 -3.693,2.655 -0.087,1.066 1.287,6.143 2.587,6.038 z"
   id="path258" />
		<path
   fill="#163560"
   d="m 166.878,117.318 c 0,0 1.925,3.391 4.083,3.594 2.158,0.203 2.969,-0.496 2.969,-0.496 0,0 -1.791,-1.01 -2.473,-3.162 0,0 -3.834,-1.814 -4.579,0.064 z"
   id="path260" />
		<path
   fill="#163560"
   d="m 167.259,117.558 c 0,0 -0.942,0.534 -1.238,1.331 -0.289,0.778 -0.481,1.779 -0.217,2.928 0,0 -1.408,-2.289 -0.485,-3.857 0.978,-1.664 1.94,-0.402 1.94,-0.402 z"
   id="path262" />
	</g>
	<path
   fill="#233862"
   d="M 276.25,200 H 2.029 c -0.188,0 -0.343,-0.154 -0.343,-0.343 v -0.198 c 0,-0.188 0.154,-0.343 0.343,-0.343 H 276.25 c 0.188,0 0.342,0.155 0.342,0.343 v 0.198 c 0,0.189 -0.154,0.343 -0.342,0.343 z"
   id="path266" />
</g>
</svg>
